<svg width="0" height="0" class="hidden">
  <symbol role="img" xmlns="http://www.w3.org/2000/svg" viewBox="0 0 24 24" id="angular">
    <title>Angular</title>
    <path
      d="M16.712 17.711H7.288l-1.204 2.916L12 24l5.916-3.373-1.204-2.916ZM14.692 0l7.832 16.855.814-12.856L14.692 0ZM9.308 0 .662 3.999l.814 12.856L9.308 0Zm-.405 13.93h6.198L12 6.396 8.903 13.93Z">
    </path>
  </symbol>
  <symbol role="img" xmlns="http://www.w3.org/2000/svg" viewBox="0 0 24 24" id="docker">
    <title>Docker</title>
    <path
      d="M13.983 11.078h2.119a.186.186 0 00.186-.185V9.006a.186.186 0 00-.186-.186h-2.119a.185.185 0 00-.185.185v1.888c0 .102.083.185.185.185m-2.954-5.43h2.118a.186.186 0 00.186-.186V3.574a.186.186 0 00-.186-.185h-2.118a.185.185 0 00-.185.185v1.888c0 .102.082.185.185.185m0 2.716h2.118a.187.187 0 00.186-.186V6.29a.186.186 0 00-.186-.185h-2.118a.185.185 0 00-.185.185v1.887c0 .102.082.185.185.186m-2.93 0h2.12a.186.186 0 00.184-.186V6.29a.185.185 0 00-.185-.185H8.1a.185.185 0 00-.185.185v1.887c0 .102.083.185.185.186m-2.964 0h2.119a.186.186 0 00.185-.186V6.29a.185.185 0 00-.185-.185H5.136a.186.186 0 00-.186.185v1.887c0 .102.084.185.186.186m5.893 2.715h2.118a.186.186 0 00.186-.185V9.006a.186.186 0 00-.186-.186h-2.118a.185.185 0 00-.185.185v1.888c0 .102.082.185.185.185m-2.93 0h2.12a.185.185 0 00.184-.185V9.006a.185.185 0 00-.184-.186h-2.12a.185.185 0 00-.184.185v1.888c0 .102.083.185.185.185m-2.964 0h2.119a.185.185 0 00.185-.185V9.006a.185.185 0 00-.184-.186h-2.12a.186.186 0 00-.186.186v1.887c0 .102.084.185.186.185m-2.92 0h2.12a.185.185 0 00.184-.185V9.006a.185.185 0 00-.184-.186h-2.12a.185.185 0 00-.184.185v1.888c0 .102.082.185.185.185M23.763 9.89c-.065-.051-.672-.51-1.954-.51-.338.001-.676.03-1.01.087-.248-1.7-1.653-2.53-1.716-2.566l-.344-.199-.226.327c-.284.438-.49.922-.612 1.43-.23.97-.09 1.882.403 2.661-.595.332-1.55.413-1.744.42H.751a.751.751 0 00-.75.748 11.376 11.376 0 00.692 4.062c.545 1.428 1.355 2.48 2.41 3.124 1.18.723 3.1 1.137 5.275 1.137.983.003 1.963-.086 2.93-.266a12.248 12.248 0 003.823-1.389c.98-.567 1.86-1.288 2.61-2.136 1.252-1.418 1.998-2.997 2.553-4.4h.221c1.372 0 2.215-.549 2.68-1.009.309-.293.55-.65.707-1.046l.098-.288Z">
    </path>
  </symbol>
  <symbol role="img" xmlns="http://www.w3.org/2000/svg" viewBox="0 0 24 24" id="nodejs">
    <title>Node.js</title>
    <path
      d="M11.998,24c-0.321,0-0.641-0.084-0.922-0.247l-2.936-1.737c-0.438-0.245-0.224-0.332-0.08-0.383 c0.585-0.203,0.703-0.25,1.328-0.604c0.065-0.037,0.151-0.023,0.218,0.017l2.256,1.339c0.082,0.045,0.197,0.045,0.272,0l8.795-5.076 c0.082-0.047,0.134-0.141,0.134-0.238V6.921c0-0.099-0.053-0.192-0.137-0.242l-8.791-5.072c-0.081-0.047-0.189-0.047-0.271,0 L3.075,6.68C2.99,6.729,2.936,6.825,2.936,6.921v10.15c0,0.097,0.054,0.189,0.139,0.235l2.409,1.392 c1.307,0.654,2.108-0.116,2.108-0.89V7.787c0-0.142,0.114-0.253,0.256-0.253h1.115c0.139,0,0.255,0.112,0.255,0.253v10.021 c0,1.745-0.95,2.745-2.604,2.745c-0.508,0-0.909,0-2.026-0.551L2.28,18.675c-0.57-0.329-0.922-0.945-0.922-1.604V6.921 c0-0.659,0.353-1.275,0.922-1.603l8.795-5.082c0.557-0.315,1.296-0.315,1.848,0l8.794,5.082c0.57,0.329,0.924,0.944,0.924,1.603 v10.15c0,0.659-0.354,1.273-0.924,1.604l-8.794,5.078C12.643,23.916,12.324,24,11.998,24z M19.099,13.993 c0-1.9-1.284-2.406-3.987-2.763c-2.731-0.361-3.009-0.548-3.009-1.187c0-0.528,0.235-1.233,2.258-1.233 c1.807,0,2.473,0.389,2.747,1.607c0.024,0.115,0.129,0.199,0.247,0.199h1.141c0.071,0,0.138-0.031,0.186-0.081 c0.048-0.054,0.074-0.123,0.067-0.196c-0.177-2.098-1.571-3.076-4.388-3.076c-2.508,0-4.004,1.058-4.004,2.833 c0,1.925,1.488,2.457,3.895,2.695c2.88,0.282,3.103,0.703,3.103,1.269c0,0.983-0.789,1.402-2.642,1.402 c-2.327,0-2.839-0.584-3.011-1.742c-0.02-0.124-0.126-0.215-0.253-0.215h-1.137c-0.141,0-0.254,0.112-0.254,0.253 c0,1.482,0.806,3.248,4.655,3.248C17.501,17.007,19.099,15.91,19.099,13.993z">
    </path>
  </symbol>
  <symbol role="img" xmlns="http://www.w3.org/2000/svg" viewBox="0 0 24 24" id="react">
    <title>React</title>
    <path
      d="M14.23 12.004a2.236 2.236 0 0 1-2.235 2.236 2.236 2.236 0 0 1-2.236-2.236 2.236 2.236 0 0 1 2.235-2.236 2.236 2.236 0 0 1 2.236 2.236zm2.648-10.69c-1.346 0-3.107.96-4.888 2.622-1.78-1.653-3.542-2.602-4.887-2.602-.41 0-.783.093-1.106.278-1.375.793-1.683 3.264-.973 6.365C1.98 8.917 0 10.42 0 12.004c0 1.59 1.99 3.097 5.043 4.03-.704 3.113-.39 5.588.988 6.38.32.187.69.275 1.102.275 1.345 0 3.107-.96 4.888-2.624 1.78 1.654 3.542 2.603 4.887 2.603.41 0 .783-.09 1.106-.275 1.374-.792 1.683-3.263.973-6.365C22.02 15.096 24 13.59 24 12.004c0-1.59-1.99-3.097-5.043-4.032.704-3.11.39-5.587-.988-6.38-.318-.184-.688-.277-1.092-.278zm-.005 1.09v.006c.225 0 .406.044.558.127.666.382.955 1.835.73 3.704-.054.46-.142.945-.25 1.44-.96-.236-2.006-.417-3.107-.534-.66-.905-1.345-1.727-2.035-2.447 1.592-1.48 3.087-2.292 4.105-2.295zm-9.77.02c1.012 0 2.514.808 4.11 2.28-.686.72-1.37 1.537-2.02 2.442-1.107.117-2.154.298-3.113.538-.112-.49-.195-.964-.254-1.42-.23-1.868.054-3.32.714-3.707.19-.09.4-.127.563-.132zm4.882 3.05c.455.468.91.992 1.36 1.564-.44-.02-.89-.034-1.345-.034-.46 0-.915.01-1.36.034.44-.572.895-1.096 1.345-1.565zM12 8.1c.74 0 1.477.034 2.202.093.406.582.802 1.203 1.183 1.86.372.64.71 1.29 1.018 1.946-.308.655-.646 1.31-1.013 1.95-.38.66-.773 1.288-1.18 1.87-.728.063-1.466.098-2.21.098-.74 0-1.477-.035-2.202-.093-.406-.582-.802-1.204-1.183-1.86-.372-.64-.71-1.29-1.018-1.946.303-.657.646-1.313 1.013-1.954.38-.66.773-1.286 1.18-1.868.728-.064 1.466-.098 2.21-.098zm-3.635.254c-.24.377-.48.763-.704 1.16-.225.39-.435.782-.635 1.174-.265-.656-.49-1.31-.676-1.947.64-.15 1.315-.283 2.015-.386zm7.26 0c.695.103 1.365.23 2.006.387-.18.632-.405 1.282-.66 1.933-.2-.39-.41-.783-.64-1.174-.225-.392-.465-.774-.705-1.146zm3.063.675c.484.15.944.317 1.375.498 1.732.74 2.852 1.708 2.852 2.476-.005.768-1.125 1.74-2.857 2.475-.42.18-.88.342-1.355.493-.28-.958-.646-1.956-1.1-2.98.45-1.017.81-2.01 1.085-2.964zm-13.395.004c.278.96.645 1.957 1.1 2.98-.45 1.017-.812 2.01-1.086 2.964-.484-.15-.944-.318-1.37-.5-1.732-.737-2.852-1.706-2.852-2.474 0-.768 1.12-1.742 2.852-2.476.42-.18.88-.342 1.356-.494zm11.678 4.28c.265.657.49 1.312.676 1.948-.64.157-1.316.29-2.016.39.24-.375.48-.762.705-1.158.225-.39.435-.788.636-1.18zm-9.945.02c.2.392.41.783.64 1.175.23.39.465.772.705 1.143-.695-.102-1.365-.23-2.006-.386.18-.63.406-1.282.66-1.933zM17.92 16.32c.112.493.2.968.254 1.423.23 1.868-.054 3.32-.714 3.708-.147.09-.338.128-.563.128-1.012 0-2.514-.807-4.11-2.28.686-.72 1.37-1.536 2.02-2.44 1.107-.118 2.154-.3 3.113-.54zm-11.83.01c.96.234 2.006.415 3.107.532.66.905 1.345 1.727 2.035 2.446-1.595 1.483-3.092 2.295-4.11 2.295-.22-.005-.406-.05-.553-.132-.666-.38-.955-1.834-.73-3.703.054-.46.142-.944.25-1.438zm4.56.64c.44.02.89.034 1.345.034.46 0 .915-.01 1.36-.034-.44.572-.895 1.095-1.345 1.565-.455-.47-.91-.993-1.36-1.565z">
    </path>
  </symbol>
  <symbol role="img" xmlns="http://www.w3.org/2000/svg" viewBox="0 0 24 24" id="reactivex">
    <title>ReactiveX</title>
    <path
      d="M7.402 2.343c-2.224.984-3.615 2.583-4.4 3.747-.852 1.268-1.184 2.319-1.184 2.328-.002.036.005-.017 0 .019-.246.7-.473 1.798-.473 1.807-.265 1.344-.142 2.593-.142 2.612l.029.246a9.58 9.58 0 01.132-1.012c.019-.133.37-2.016 1.694-3.511.142-.218 1.675-2.233 4.495-2.233.606 0 1.24.094 1.874.283h.019c.038.01.87.313 1.173.464.284.142.786.36.795.36h.02c2.715 1.325 5.062 1.75 5.081 1.76.672.114 1.278.17 1.817.17 1.079 0 1.855-.236 2.262-.69.237-.26.307-.559.293-.814.019-.985-.785-2.044-1.467-2.754a10.868 10.868 0 00-1.542-1.344c-2.044-1.514-4.23-2.28-6.52-2.28-2.347.009-3.937.832-3.956.842zm7.419 2.659c.284 0 .511.227.511.51a.509.509 0 01-.511.512.509.509 0 01-.511-.511c0-.284.227-.511.511-.511zm-6.605-1.94c.075 0 .123.019.142.019l3.227 1.003-.123.255-1.543-.482c-.548-.17-1.12-.351-1.656-.52-.01 0-.028-.01-.047-.01-.02 0-.048 0-.067.01-.293.075-1.097.359-1.334.785a.481.481 0 00-.038.378c0 .01.17.54.596 1.088l2.14-.104 1.428-.066-.142.293-3.549.17c-.53-.643-.738-1.286-.738-1.286C6.181 3.554 8.083 3.07 8.083 3.07c.045-.001.09-.006.133-.01zm11.223 15.747c2.177-.946 3.104-2.584 3.104-2.584 2.035-2.772 1.344-5.697 1.344-5.697-1.296 2.82-2.48 3.596-2.48 3.596 3.19-4.854.02-7.788.02-7.788C22.723 9.1 21 12.468 21 12.468c-1.448 3.048-3.502 4.136-3.502 4.136 2.29.426 3.975-1.117 3.975-1.117-3.284 3.549-6.842 3.379-6.842 3.379 1.495 1.675 3.738 1.533 3.738 1.533-2.934.69-5.688-.284-7.95-2.167-.425-.35-.832-.73-1.21-1.136-.144-.15-.28-.31-.417-.464-.047 1.751 1.779 3.379 1.779 3.379-2.29-.947-3.34-3-3.34-3s-1.543-2.631-.426-5.631c1.107-2.962 4.419-3.626 4.504-3.645-.251-.117-.644-.292-.814-.367-.293-.142-1.145-.455-1.145-.455a6.397 6.397 0 00-1.798-.274c-2.792 0-4.277 2.11-4.277 2.11-1.316 1.477-1.628 3.388-1.628 3.388-.37 1.827.028 3.748.028 3.748s.038.151.048.217c.303.72.69 1.43 1.145 2.101 2.46 3.672 6.454 4.94 6.454 4.94 5.914 2.006 9.955-.946 9.955-.946 3.72-2.555 4.467-5.508 4.467-5.508-3.01 2.338-4.306 2.12-4.306 2.12zM1.307 14.948a12.545 12.545 0 01-.36-1.78c-.01-.098-.025-.207-.037-.302 0 0-.133-1.287.151-2.697 0 0 .01-.038.02-.095.036-.203.093-.407.132-.577.085-.37.208-.814.33-1.174 0 0 1.307-4.287 5.726-6.245 0 0 1.524-.805 3.823-.862-.162-.16-.349-.329-.51-.435-1.08-.72-2.688-.956-3.663.057-.293.303-.54.634-.814.937-.312.34-.69.624-1.126.785-.378.142-.757.114-1.145.18-.397.066-.804.208-1.126.464-.35.284-.492.662-.53 1.097-.038.341-.028.691-.047 1.032-.048 1.003-.37 1.287-1.089 1.845-.303.227-.558.53-.747.852-.568 1.003.34 2.044.388 3.057.01.208-.01.416-.085.615-.076.217-.228.36-.35.54-.171.236-.285.52-.237.813.047.293.199.568.34.823.275.455.616.862.975 1.25.012.016.038.04.054.052l-.073-.232z">
    </path>
  </symbol>
  <symbol role="img" xmlns="http://www.w3.org/2000/svg" viewBox="0 0 24 24" id="tailwindcss">
    <title>Tailwind CSS</title>
    <path
      d="M12.001,4.8c-3.2,0-5.2,1.6-6,4.8c1.2-1.6,2.6-2.2,4.2-1.8c0.913,0.228,1.565,0.89,2.288,1.624 C13.666,10.618,15.027,12,18.001,12c3.2,0,5.2-1.6,6-4.8c-1.2,1.6-2.6,2.2-4.2,1.8c-0.913-0.228-1.565-0.89-2.288-1.624 C16.337,6.182,14.976,4.8,12.001,4.8z M6.001,12c-3.2,0-5.2,1.6-6,4.8c1.2-1.6,2.6-2.2,4.2-1.8c0.913,0.228,1.565,0.89,2.288,1.624 c1.177,1.194,2.538,2.576,5.512,2.576c3.2,0,5.2-1.6,6-4.8c-1.2,1.6-2.6,2.2-4.2,1.8c-0.913-0.228-1.565-0.89-2.288-1.624 C10.337,13.382,8.976,12,6.001,12z">
    </path>
  </symbol>
  <symbol role="img" xmlns="http://www.w3.org/2000/svg" viewBox="0 0 24 24" id="typescript">
    <title>TypeScript</title>
    <path
      d="M1.125 0C.502 0 0 .502 0 1.125v21.75C0 23.498.502 24 1.125 24h21.75c.623 0 1.125-.502 1.125-1.125V1.125C24 .502 23.498 0 22.875 0zm17.363 9.75c.612 0 1.154.037 1.627.111a6.38 6.38 0 0 1 1.306.34v2.458a3.95 3.95 0 0 0-.643-.361 5.093 5.093 0 0 0-.717-.26 5.453 5.453 0 0 0-1.426-.2c-.3 0-.573.028-.819.086a2.1 2.1 0 0 0-.623.242c-.17.104-.3.229-.393.374a.888.888 0 0 0-.14.49c0 .196.053.373.156.529.104.156.252.304.443.444s.423.276.696.41c.273.135.582.274.926.416.47.197.892.407 1.266.628.374.222.695.473.963.753.268.279.472.598.614.957.142.359.214.776.214 1.253 0 .657-.125 1.21-.373 1.656a3.033 3.033 0 0 1-1.012 1.085 4.38 4.38 0 0 1-1.487.596c-.566.12-1.163.18-1.79.18a9.916 9.916 0 0 1-1.84-.164 5.544 5.544 0 0 1-1.512-.493v-2.63a5.033 5.033 0 0 0 3.237 1.2c.333 0 .624-.03.872-.09.249-.06.456-.144.623-.25.166-.108.29-.234.373-.38a1.023 1.023 0 0 0-.074-1.089 2.12 2.12 0 0 0-.537-.5 5.597 5.597 0 0 0-.807-.444 27.72 27.72 0 0 0-1.007-.436c-.918-.383-1.602-.852-2.053-1.405-.45-.553-.676-1.222-.676-2.005 0-.614.123-1.141.369-1.582.246-.441.58-.804 1.004-1.089a4.494 4.494 0 0 1 1.47-.629 7.536 7.536 0 0 1 1.77-.201zm-15.113.188h9.563v2.166H9.506v9.646H6.789v-9.646H3.375z">
    </path>
  </symbol>
  <symbol viewBox="0 0 24 24" role="img" xmlns="http://www.w3.org/2000/svg" id="dotnet">
    <title>.NET</title>
    <path
      d="M24 8.77h-2.468v7.565h-1.425V8.77h-2.462V7.53H24zm-6.852 7.565h-4.821V7.53h4.63v1.24h-3.205v2.494h2.953v1.234h-2.953v2.604h3.396zm-6.708 0H8.882L4.78 9.863a2.896 2.896 0 0 1-.258-.51h-.036c.032.189.048.592.048 1.21v5.772H3.157V7.53h1.659l3.965 6.32c.167.261.275.442.323.54h.024c-.04-.233-.06-.629-.06-1.185V7.529h1.372zm-8.703-.693a.868.829 0 0 1-.869.829.868.829 0 0 1-.868-.83.868.829 0 0 1 .868-.828.868.829 0 0 1 .869.829z" />
  </symbol>
  <symbol role="img" viewBox="0 0 14 14" xmlns="http://www.w3.org/2000/svg" id="cesharp">
    <title>C#</title>
    <path d="M10 8V7h1v1z"  />
    <path fill-rule="evenodd" clip-rule="evenodd"
      d="M7.5 0.421 14 4.213v6.574L7.5 14.58 1 10.787V4.213zM6.332 4A3.33 3.33 0 0 0 3 7.332v0.336a3.332 3.332 0 0 0 4.821 2.98l0.403 -0.2 -0.448 -0.895 -0.402 0.2A2.33 2.33 0 0 1 4 7.669v-0.336a2.332 2.332 0 0 1 3.374 -2.086l0.402 0.201 0.448 -0.894 -0.403 -0.201A3.3 3.3 0 0 0 6.331 4M9 5v1H8v1h1v1H8v1h1v1h1V9h1v1h1V9h1V8h-1V7h1V6h-1V5h-1v1h-1V5z" />
  </symbol>
  <symbol role="img" xmlns="http://www.w3.org/2000/svg"  viewBox="0 0 24 24" id="azure" >
  <path  stroke-linejoin="round" d="M6 18H1.5L7 8l5 -3.5L6 18Z" stroke-width="1"></path>
  <path  stroke-linejoin="round" d="M11.5 12 14 5.5 22.5 20H8l8 -3 -4.5 -5Z" stroke-width="1"></path>
</symbol>
</svg>